<?xml version="1.0" standalone="no"?>
<!DOCTYPE svg PUBLIC "-//W3C//DTD SVG 20010904//EN"
 "http://www.w3.org/TR/2001/REC-SVG-20010904/DTD/svg10.dtd">
<svg version="1.0" xmlns="http://www.w3.org/2000/svg"
 width="700.000000pt" height="700.000000pt" viewBox="0 0 700.000000 700.000000"
 preserveAspectRatio="xMidYMid meet">
<metadata>
Created by potrace 1.11, written by Peter Selinger 2001-2013
</metadata>
<g transform="translate(0.000000,700.000000) scale(0.100000,-0.100000)"
fill="#000000" stroke="none">
<path d="M3278 6996 c-1 -2 -42 -6 -89 -10 -47 -4 -95 -8 -105 -10 -10 -2 -48
-7 -84 -12 -36 -4 -67 -8 -70 -9 -3 -1 -25 -5 -50 -9 -25 -4 -101 -21 -170
-38 -69 -16 -134 -31 -145 -34 -11 -2 -76 -22 -145 -45 -315 -103 -629 -259
-896 -444 l-90 -63 -31 19 c-229 145 -537 22 -616 -246 -27 -94 -14 -231 31
-306 15 -26 14 -28 -45 -100 -254 -313 -465 -700 -593 -1089 -46 -137 -89
-291 -95 -335 -2 -11 -10 -56 -19 -100 -18 -89 -22 -117 -32 -184 -3 -25 -8
-57 -10 -71 -25 -156 -25 -718 1 -820 2 -8 6 -40 10 -71 3 -31 8 -67 11 -80 2
-13 7 -40 10 -59 3 -19 7 -42 9 -50 2 -8 7 -30 10 -48 12 -71 76 -303 113
-412 214 -622 576 -1143 1102 -1584 292 -244 727 -483 1100 -604 196 -63 265
-82 395 -108 157 -31 168 -33 240 -40 33 -3 62 -7 66 -9 29 -18 545 -26 714
-11 152 13 367 46 470 73 33 8 67 16 75 18 101 21 358 107 515 173 115 48 326
154 395 197 22 14 42 25 45 25 3 0 11 5 18 10 7 6 64 45 127 87 288 189 571
451 794 732 423 533 684 1193 744 1876 14 163 6 625 -13 720 -2 11 -7 40 -10
65 -3 25 -7 56 -10 70 -3 14 -8 42 -11 63 -3 21 -19 93 -34 160 -81 348 -190
628 -370 952 -34 60 -171 274 -196 304 -7 9 -38 50 -69 91 -130 174 -327 381
-511 536 -116 98 -121 103 -204 162 -41 29 -82 58 -91 65 -24 18 -43 30 -184
115 -277 167 -578 293 -900 377 -180 48 -266 63 -555 100 -47 7 -546 16 -552
11z m527 -149 c136 -16 255 -33 295 -42 3 -1 25 -5 50 -9 48 -8 225 -51 275
-66 383 -117 668 -252 970 -458 549 -374 971 -900 1223 -1523 43 -106 124
-353 136 -416 2 -10 11 -45 19 -78 9 -33 18 -76 21 -95 3 -19 10 -60 16 -90 6
-30 13 -75 16 -100 3 -25 7 -56 9 -70 26 -142 26 -620 0 -800 -2 -14 -6 -50
-10 -80 -3 -30 -10 -74 -16 -98 -5 -23 -12 -59 -15 -78 -23 -143 -101 -407
-176 -594 -401 -995 -1256 -1744 -2292 -2005 -77 -20 -153 -38 -168 -40 -15
-2 -51 -8 -80 -14 -64 -12 -102 -18 -188 -26 -36 -4 -76 -9 -90 -12 -44 -9
-493 -10 -570 -2 -41 4 -100 11 -130 14 -30 3 -66 8 -80 10 -14 2 -43 7 -65
10 -123 17 -351 74 -520 129 -303 100 -625 265 -895 459 -592 425 -1037 1043
-1250 1740 -22 70 -42 138 -44 150 -2 12 -11 51 -20 87 -14 62 -19 86 -31 155
-3 17 -8 37 -10 45 -2 8 -7 41 -10 73 -4 32 -8 66 -10 75 -19 102 -27 528 -13
692 44 496 202 993 447 1408 97 164 308 462 327 462 3 0 17 -9 31 -20 13 -10
50 -29 81 -40 183 -69 393 7 495 179 73 121 80 261 21 390 -13 30 -23 55 -22
57 2 1 50 33 108 71 282 186 606 337 918 427 130 38 370 90 462 101 30 3 62 8
70 10 8 2 60 7 115 11 55 3 102 8 104 10 5 4 446 -4 496 -9z"/>
<path d="M2855 6381 c-46 -9 -51 -40 -49 -311 l2 -241 -26 -10 c-15 -6 -77
-11 -140 -11 -87 -1 -116 2 -128 13 -12 12 -15 61 -17 271 -1 141 -5 260 -10
264 -12 12 -99 20 -137 13 -19 -4 -39 -14 -45 -22 -12 -17 -14 -668 -2 -704 4
-11 15 -24 25 -28 13 -5 217 -6 552 -3 30 0 172 -1 315 -2 143 -2 270 0 281 4
12 4 24 17 28 29 8 32 7 700 -2 713 -14 22 -52 34 -109 33 -98 -1 -91 23 -89
-283 1 -211 -2 -272 -12 -283 -18 -18 -227 -18 -262 0 l-25 13 0 256 c0 227
-2 259 -17 274 -17 18 -81 25 -133 15z"/>
<path d="M3426 5033 c-3 -3 -250 -6 -549 -7 -423 -1 -547 -4 -559 -14 -19 -15
-18 -136 1 -155 9 -9 73 -12 242 -13 165 0 232 -3 241 -12 15 -15 17 -177 2
-192 -6 -6 -97 -11 -226 -12 -245 -3 -249 -5 -266 -82 -5 -23 -9 -258 -10
-522 -1 -376 1 -484 11 -498 30 -40 169 -27 181 17 3 12 6 219 6 460 0 485 -7
440 65 439 58 0 64 -2 71 -24 5 -13 8 -215 9 -451 1 -370 3 -429 16 -442 10
-10 37 -16 78 -17 103 -3 96 -37 96 473 0 367 3 442 15 449 18 11 107 7 120
-6 7 -7 10 -167 11 -446 0 -331 3 -440 12 -452 10 -14 28 -17 85 -17 40 0 77
3 82 6 7 4 9 152 7 428 -3 380 0 477 16 494 6 5 52 7 94 4 45 -2 47 -19 48
-483 0 -338 3 -440 13 -450 15 -15 131 -21 152 -8 15 9 16 98 11 958 -1 172
13 163 -244 161 -111 0 -214 2 -229 6 -34 9 -41 31 -40 119 2 105 -8 101 262
101 175 0 232 3 242 13 19 19 16 138 -3 158 -16 16 -54 26 -63 17z"/>
<path d="M702 5003 c-22 -19 -25 -33 -23 -94 2 -61 17 -72 109 -74 45 -2 88
-8 96 -14 11 -10 14 -105 12 -562 -1 -477 -3 -551 -16 -559 -8 -5 -52 -10 -96
-10 -57 0 -85 -4 -93 -14 -17 -20 -16 -145 1 -163 12 -11 98 -14 497 -15 473
-1 483 0 503 20 16 16 20 33 20 82 0 84 -11 94 -108 96 -41 1 -80 6 -87 13
-13 13 -16 131 -19 683 -1 316 1 420 11 431 9 11 31 15 87 13 99 -3 116 12
113 93 -4 100 46 91 -503 91 -446 0 -485 -1 -504 -17z m589 -185 c9 -16 11
-157 10 -551 -1 -290 -5 -535 -8 -543 -13 -34 -166 -41 -190 -8 -14 19 -14 5
-17 694 -2 321 0 398 11 411 11 13 34 17 98 18 77 1 85 0 96 -21z"/>
</g>
</svg>
