<?xml version="1.0" encoding="utf-8"?>
<!-- Generator: Adobe Illustrator 19.2.1, SVG Export Plug-In . SVG Version: 6.00 Build 0)  -->
<svg version="1.1" id="Layer_1" xmlns="http://www.w3.org/2000/svg" xmlns:xlink="http://www.w3.org/1999/xlink" x="0px" y="0px"
	 viewBox="0 0 100 100" style="enable-background:new 0 0 100 100;" xml:space="preserve">
<!-- <style type="text/css">
	.st0{fill:#FFFFFF;}
</style> -->
<path class="st0" d="M50,100C22.4,100,0,77.6,0,50c0-12.3,4.5-23.6,11.9-32.3c-0.6-0.9-0.9-2-0.9-3.2c0-3.3,2.7-6,6-6
	c1.3,0,2.5,0.5,3.5,1.2C28.7,3.6,38.9,0,50,0c27.6,0,50,22.4,50,50S77.6,100,50,100z M50,2c-10.5,0-20.2,3.4-28.2,9.1
	c0.6,0.9,1,2.1,1,3.3c0,3.3-2.7,6-6,6c-1.4,0-2.6-0.5-3.6-1.3C6.2,27.5,2,38.2,2,50c0,26.5,21.5,48,48,48s48-21.5,48-48S76.5,2,50,2
	z M50.1,18.7c0,0.5,0,0.8-0.2,1c-0.3,0.3-1.1,0.2-2,0.2c-2.5,0-3.8-0.1-6.6-0.1c-2,0-4.3,0.1-6.6,0.1c-0.9,0-1.6,0-1.8-0.4
	c-0.2-0.4-0.1-1.9-0.1-2.5v-6.5c0-0.5-0.1-1,0.1-1.2C32.9,9.2,33.3,9,33.5,9h0.1c0.6-0.1,1.7-0.1,2,0.3c0.2,0.3,0.1,1.2,0.1,1.8v3.9
	c0,0.6-0.1,1.6,0.1,1.8c0.2,0.4,2.4,0.3,3.3,0.2c0.2,0,0.3,0,0.5-0.1c0.2,0,0.4,0,0.4-0.1c0.3-0.3,0.2-1.1,0.1-1.8
	c-0.1-1.7,0-2.4,0-4.1c0-0.7-0.1-1.5,0.2-1.8c0.3-0.4,2-0.5,2.4-0.1c0.5,0.5,0.2,2.8,0.2,3.8c0,0.4,0,1.3,0,2c0,0.7-0.1,1.6,0.1,1.9
	c0.1,0.1,0.3,0.1,0.4,0.2c0.6,0.2,2,0.1,2.8,0.1c0.4,0,0.8,0,0.9-0.2c0.2-0.3,0.1-1,0.1-1.9c0-1.5-0.1-3.3,0-5l0-0.9
	c0-0.2,0.2-0.2,0.3-0.2c0.3,0,0.6-0.1,1.2-0.1c0.3,0,0.6,0,0.8,0.1c0.2,0.1,0.4,0.2,0.5,0.3c0.2,0.4,0.1,1.8,0.1,2.6
	C50.1,14.3,50.2,16.1,50.1,18.7z M22.7,47.2c0.9,0,1.4-0.2,1.7,0.5c0.2,0.5,0.1,1.8-0.2,2.1c-0.5,0.5-2.5,0.2-3.5,0.2h-7.5
	c-0.8,0-3.1,0.2-3.4-0.2c-0.2-0.2-0.1-1.4-0.1-2c0-0.1,0-0.2,0.1-0.3c0.1-0.1,0.2-0.1,0.3-0.2c0.2-0.1,0.8,0,1.2,0
	c0.4,0,0.8,0,1.2-0.1l0.2-0.1c0.1-0.2,0.1-1.3,0.1-1.9c0.1-4.1,0-7.9,0-12.2c0-0.6,0.1-1.7-0.1-1.9c-0.4-0.4-2.3,0.1-2.8-0.4
	c-0.2-0.2-0.2-0.6-0.2-1.1c0-0.3-0.1-0.7,0.1-0.9l0.1-0.1l0.1-0.1c0.3-0.4,2.1-0.2,3.1-0.2H23c0.2,0,1-0.1,1.2,0.1l0.1,0.2
	c0.2,0.6,0.2,2-0.2,2.2c-0.3,0.2-0.8,0.1-1.3,0.1c-0.4,0-1-0.1-1.2,0.1c-0.4,0.3-0.2,2.1-0.2,3.4c0,3.6-0.1,7.3,0.1,10.6
	c0,0.6-0.1,1.7,0.1,2C21.7,47.2,22.2,47.2,22.7,47.2z M18.4,31c-0.3-0.3-2-0.1-2.3-0.1c-0.2,0-0.3,0-0.4,0.1
	c-0.1,0.1-0.1,0.2-0.2,0.3c0,0.4,0,1,0,1.4v6.3c0,2.5,0,3.9,0.1,6.2c0,0.9-0.1,1.7,0.2,1.9c0.3,0.2,2.3,0.2,2.6-0.1
	c0.2-0.3,0.2-1.1,0.2-1.8V34.9C18.6,34.1,18.8,31.4,18.4,31z M32.9,37.8c0-1.2-0.1-2.9,0.5-3.6c0.3-0.4,0.9-0.3,3.3-0.3
	c0.7,0,1.7,0,2.5,0c0.3,0,0.7,0,0.8-0.1c0.3-0.2,0.3-1.6,0.2-2.3c-0.1-0.7-0.2-0.7-1-0.7c-0.8,0-1.9,0-2.7,0c-1.2,0-3,0.2-3.4-0.2
	c-0.2-0.2-0.2-0.6-0.2-1.2c0-0.3,0-0.6,0-0.7c0,0,0.2-0.4,0.3-0.4c0.3-0.2,1.1-0.1,1.9-0.1h12c0.7,0,1.4-0.1,2-0.1
	c0.1,0,0.4-0.1,0.6,0.1c0.5,0.3,0.6,2.2,0.1,2.5c-0.4,0.3-1.2,0.1-1.7,0.1c-1.6,0-2.7-0.1-4.4,0c-0.7,0-0.9,0-1,0.7
	c-0.1,0.6-0.1,2,0.2,2.3c0.4,0.4,2.7,0.2,3.4,0.2c0.5,0,1.2,0,1.8,0l0.9,0c1.1,0,1,0.5,1,1.9l0.1,12.1c0,0.8,0,1.8-0.1,1.9
	c-0.1,0.2-0.4,0.2-0.8,0.2v0h0l-0.4,0l-0.1,0c-0.6,0-0.7,0-0.9-0.1c-0.1,0-0.2-0.1-0.2-0.2c0-0.1-0.1-0.2-0.1-0.5c0-0.3,0-1.7,0-2.5
	c0-3,0-5.3,0-8.6c0-0.4,0-0.8-0.1-1.2c-0.1-0.4-0.5-0.5-0.9-0.5l-0.2,0c-0.4,0-0.8,0-0.9,0.2c-0.3,0.3-0.2,2.6-0.2,3.3l0.1,7.4
	c0,1.1,0,2.1-0.1,2.3c-0.1,0.2-0.4,0.2-1.3,0.2v0c-0.8,0-0.9,0-1.1-0.2c-0.2-0.2-0.2-0.9-0.2-1.5c0-3.3,0-6.4,0-9.9
	c0-0.6,0.1-1.3-0.1-1.5c-0.2-0.3-1.8-0.3-1.9,0c-0.1,0.3-0.1,0.6-0.1,3c0,3,0,5.4,0,8.5c0,0.6,0.1,1.1-0.2,1.4
	C40,50,39.5,49.9,39,49.9c-0.6,0-0.9,0-1.1-0.3c-0.2-0.3-0.1-0.8-0.1-1.6c0-1.6,0-3.3,0-4.9c0-1.2,0-2.2,0-3.4c0-2.1,0-2.7-0.2-3
	c-0.1-0.2-0.4-0.2-1.4-0.2c-0.4,0-0.5,0.1-0.5,0.4c0,2,0,4.4,0,6.4c0,1.4,0,3.4,0,5c0,0.4,0,0.8-0.1,1.2c-0.2,0.5-1.3,0.6-2.1,0.4
	c-0.1,0-0.4-0.1-0.5-0.2c-0.2-0.3-0.1-1.1-0.1-1.9C32.8,44.3,32.9,41.4,32.9,37.8z"/>
</svg>
